<?xml version="1.0" encoding="UTF-8"?>
<svg version="1.1" xmlns="http://www.w3.org/2000/svg" width="512" height="512">
<path d="M0 0 C12.5482136 9.53362775 20.32662696 22.33443138 22.6015625 37.9765625 C22.70929024 39.91537088 22.77613615 41.85678436 22.80688477 43.79833984 C22.82682999 44.91904877 22.84677521 46.03975769 22.86732483 47.19442749 C22.89239357 48.98537338 22.89239357 48.98537338 22.91796875 50.8125 C22.93874985 52.04698883 22.95953094 53.28147766 22.98094177 54.55337524 C23.04618086 58.48604921 23.10520302 62.41878839 23.1640625 66.3515625 C23.20676862 69.02215107 23.25088714 71.69271399 23.29492188 74.36328125 C23.40183597 80.90097329 23.50364951 87.43872979 23.6015625 93.9765625 C24.15094482 94.23348877 24.70032715 94.49041504 25.26635742 94.75512695 C27.77523051 95.93034289 30.2821534 97.10966325 32.7890625 98.2890625 C33.65337891 98.69318359 34.51769531 99.09730469 35.40820312 99.51367188 C38.9149273 101.16626603 42.23804346 102.7330593 45.46484375 104.89453125 C47.53072107 106.23904061 47.53072107 106.23904061 49.64697266 105.42993164 C51.97029018 103.70238864 53.88500827 101.82829394 55.875 99.72265625 C56.69274902 98.87195557 57.51049805 98.02125488 58.35302734 97.14477539 C59.21879395 96.24364014 60.08456055 95.34250488 60.9765625 94.4140625 C77.20011548 77.91169913 94.24938243 68.51175253 117.9140625 67.6640625 C135.86367591 68.10758492 152.07661605 74.13335195 165.6015625 85.9765625 C166.82296337 88.41936423 166.41416406 89.31761477 166.0390625 91.9765625 C165.97635152 96.7974689 167.8233038 99.05036132 171.0390625 102.5390625 C174.54250889 105.87662884 174.54250889 105.87662884 178.98828125 107.359375 C180.4760951 107.22954831 181.96212794 107.07729686 183.4453125 106.90234375 C187.17728152 107.03079921 189.13408394 109.26497338 191.69140625 111.796875 C202.0101719 123.5716628 208.64841665 138.23521437 209.6015625 153.9765625 C209.68083984 155.26240234 209.68083984 155.26240234 209.76171875 156.57421875 C210.30714144 174.19374309 205.3909337 190.03719097 194.6015625 203.9765625 C194.13363281 204.59789062 193.66570312 205.21921875 193.18359375 205.859375 C190.97638298 208.67102194 189.11366051 211.01871759 185.6015625 211.9765625 C179.25769138 212.12074139 175.94644719 208.04665131 171.6015625 203.9765625 C168.31439001 200.7661851 165.09436454 197.49296219 161.87890625 194.2109375 C160.49711842 192.81249198 159.11531825 191.4140584 157.7328043 190.01633072 C154.35965554 186.6053576 150.99122544 183.18985716 147.63452148 179.76269531 C145.73819437 177.82712376 143.83657846 175.89705076 141.92884827 173.97271729 C140.14205402 172.17003719 138.36304298 170.35959941 136.59300232 168.54046631 C131.17290562 163.09688103 127.08756114 159.56905289 119.2890625 158.5390625 C115.02334938 159.04516406 111.64823005 160.37711341 107.73828125 162.1015625 C105.6015625 162.9765625 105.6015625 162.9765625 103.6015625 162.9765625 C104.12157837 163.91616821 104.12157837 163.91616821 104.65209961 164.87475586 C119.52077713 191.97463513 139.16423669 232.69123778 133.6015625 264.9765625 C131.77467727 268.05342184 131.06325252 268.82266583 127.6015625 269.9765625 C127.2715625 275.5865625 126.9415625 281.1965625 126.6015625 286.9765625 C128.2515625 287.3065625 129.9015625 287.6365625 131.6015625 287.9765625 C136.44621033 295.24353424 133.28803763 306.9036619 131.9140625 315.1015625 C131.65266479 316.71647583 131.65266479 316.71647583 131.38598633 318.36401367 C130.10780264 325.89830518 128.40086501 333.21022612 126.08911133 340.49462891 C124.59447815 345.26143976 124.59447815 345.26143976 125.6015625 349.9765625 C127.32986886 352.08589055 127.32986886 352.08589055 129.5390625 354.13671875 C130.34754639 354.92457764 131.15603027 355.71243652 131.98901367 356.52416992 C132.85115479 357.35408447 133.7132959 358.18399902 134.6015625 359.0390625 C152.49414806 376.66669538 164.70553618 393.35530695 165.0390625 419.2890625 C164.9196779 437.91455182 159.19062741 454.53181234 146.4609375 468.33984375 C143.5041868 470.94252977 141.82177573 472.04462859 137.802948 471.82044983 C133.78167084 470.76043852 132.15195668 469.1308173 129.23876953 466.18139648 C128.74046127 465.68381836 128.24215302 465.18624023 127.72874451 464.67358398 C126.09348024 463.03485133 124.47661705 461.37916093 122.859375 459.72265625 C121.72561405 458.57956455 120.59074013 457.43757575 119.45480347 456.29664612 C116.47463555 453.2974293 113.50979082 450.28350096 110.5479126 447.26623535 C107.52023882 444.18732418 104.47827991 441.12259887 101.4375 438.05664062 C95.47813264 432.04372274 89.53488204 426.01518435 83.6015625 419.9765625 C82.83440918 420.74532715 82.06725586 421.5140918 81.27685547 422.30615234 C59.21034768 444.33238543 27.36470542 469.02793643 -5.33984375 470.0703125 C-6.01917969 470.039375 -6.69851563 470.0084375 -7.3984375 469.9765625 C-7.36363281 470.81058594 -7.32882812 471.64460938 -7.29296875 472.50390625 C-7.06651875 481.91775637 -7.61684849 488.88323543 -13.6484375 496.3515625 C-18.91401686 501.83563063 -23.27274703 503.12776107 -30.7109375 503.4765625 C-37.20507359 503.28994939 -42.23772423 502.01943174 -47.3984375 497.9765625 C-53.03569378 491.51097468 -54.41548027 486.14218832 -54.9609375 477.7265625 C-55.04472656 476.46328125 -55.12851563 475.2 -55.21484375 473.8984375 C-55.27542969 472.93421875 -55.33601562 471.97 -55.3984375 470.9765625 C-56.40519531 470.76902344 -57.41195312 470.56148438 -58.44921875 470.34765625 C-93.41866294 462.82471873 -120.61850044 445.31967994 -145.3984375 419.9765625 C-151.49041386 425.00881639 -157.01672189 430.49805142 -162.56640625 436.1171875 C-163.53293898 437.09068013 -164.49984958 438.06379772 -165.46711731 439.03656006 C-169.54420191 443.13791045 -173.61541728 447.24505158 -177.68237305 451.35644531 C-180.18248758 453.88335984 -182.68746758 456.405366 -185.19548988 458.92443085 C-186.60620396 460.34433728 -188.01130453 461.76981378 -189.41630554 463.19537354 C-190.27432266 464.05676941 -191.13233978 464.91816528 -192.01635742 465.80566406 C-192.76801682 466.56478088 -193.51967621 467.32389771 -194.29411316 468.10601807 C-197.20542553 470.6938982 -199.24169573 471.92398333 -203.1484375 472.1015625 C-212.32485271 468.92511108 -217.42261696 459.18742167 -221.50976562 450.90478516 C-229.78727322 432.94441292 -230.3870045 413.54147716 -224.2109375 394.7890625 C-219.2145773 381.75191271 -210.79279841 372.06157749 -200.78515625 362.59375 C-199.96313721 361.80427979 -199.14111816 361.01480957 -198.29418945 360.20141602 C-196.63181289 358.61052567 -194.95213379 357.03749438 -193.25463867 355.48413086 C-188.63596593 351.29816403 -188.63596593 351.29816403 -187.2265625 345.51953125 C-187.61328125 344.35035156 -188 343.18117188 -188.3984375 341.9765625 C-188.77042813 340.48944771 -189.13165062 338.99961441 -189.484375 337.5078125 C-189.69167236 336.70029541 -189.89896973 335.89277832 -190.11254883 335.06079102 C-193.58032194 321.50099109 -197.44738103 306.07174121 -196.3984375 291.9765625 C-194.5859375 289.1015625 -194.5859375 289.1015625 -192.3984375 286.9765625 C-191.4084375 286.9765625 -190.4184375 286.9765625 -189.3984375 286.9765625 C-189.7284375 281.3665625 -190.0584375 275.7565625 -190.3984375 269.9765625 C-191.7184375 269.3165625 -193.0384375 268.6565625 -194.3984375 267.9765625 C-198.82035865 261.90672042 -195.72300874 251.02827644 -194.71484375 244.01171875 C-190.51473096 217.34496489 -181.36398061 190.67723188 -168.26171875 167.05078125 C-167.07751139 164.8452106 -167.07751139 164.8452106 -168.3984375 161.9765625 C-173.523697 158.33493075 -179.33263476 157.96559538 -185.3984375 158.9765625 C-192.74535584 161.81867741 -197.54719297 166.66829306 -202.91972542 172.25832176 C-204.46190286 173.86145938 -206.01760378 175.45031727 -207.57749939 177.03620911 C-212.00516848 181.54289588 -216.40644469 186.07504983 -220.80200195 190.61303711 C-223.50230133 193.39890974 -226.21719161 196.16988963 -228.94106865 198.93270302 C-229.97117177 199.98387365 -230.99540742 201.04082899 -232.0134449 202.10368919 C-233.43693101 203.58980322 -234.8781701 205.05638435 -236.32446289 206.52026367 C-237.13750381 207.35869308 -237.95054474 208.1971225 -238.78822327 209.06095886 C-242.03089693 211.44071658 -244.41647688 211.79200927 -248.3984375 211.9765625 C-258.34397376 207.05707403 -264.65844121 193.83530272 -268.3984375 183.9765625 C-274.31378422 165.71292949 -273.8830627 146.38257152 -265.90234375 128.77734375 C-261.10822053 119.84906752 -254.37940293 112.25204741 -247.3984375 104.9765625 C-246.72312988 104.26870605 -246.04782227 103.56084961 -245.35205078 102.83154297 C-226.76641856 83.46244147 -208.3050087 68.51106084 -180.3359375 67.7265625 C-162.13544954 67.91615092 -143.970855 74.24446392 -130.92782593 87.19927979 C-127.89089607 90.30338271 -124.8999672 93.44869253 -121.92260742 96.60986328 C-120.43658224 98.17985137 -118.9359574 99.73472865 -117.43359375 101.2890625 C-116.12467163 102.67544922 -116.12467163 102.67544922 -114.78930664 104.08984375 C-112.63417918 106.21091479 -112.63417918 106.21091479 -110.32519531 105.89428711 C-108.36459445 104.96044288 -106.43434838 104.03499713 -104.53515625 102.98046875 C-103.81263672 102.58666016 -103.09011719 102.19285156 -102.34570312 101.78710938 C-100.84982427 100.96094983 -99.3550144 100.13285151 -97.86132812 99.30273438 C-96.77174805 98.71008789 -96.77174805 98.71008789 -95.66015625 98.10546875 C-94.68502075 97.56515015 -94.68502075 97.56515015 -93.69018555 97.01391602 C-90.67882483 95.65083179 -87.58629699 94.83123136 -84.3984375 93.9765625 C-84.40731995 93.25374588 -84.41620239 92.53092926 -84.425354 91.78620911 C-84.50606516 84.91791187 -84.56668573 78.04968705 -84.60568619 71.18103504 C-84.62641216 67.65116174 -84.6544481 64.12168575 -84.70019531 60.59204102 C-84.75265314 56.51835691 -84.77150619 52.445079 -84.7890625 48.37109375 C-84.82003021 46.50309868 -84.82003021 46.50309868 -84.85162354 44.59736633 C-84.85543992 29.43582604 -80.04600816 16.82724757 -69.6484375 5.7265625 C-50.34019168 -12.35870422 -21.89740633 -14.82965558 0 0 Z " fill="#020100" transform="translate(287.3984375,9.0234375)"/>
<path d="M0 0 C12.5482136 9.53362775 20.32662696 22.33443138 22.6015625 37.9765625 C22.70929024 39.91537088 22.77613615 41.85678436 22.80688477 43.79833984 C22.82682999 44.91904877 22.84677521 46.03975769 22.86732483 47.19442749 C22.89239357 48.98537338 22.89239357 48.98537338 22.91796875 50.8125 C22.93874985 52.04698883 22.95953094 53.28147766 22.98094177 54.55337524 C23.04618086 58.48604921 23.10520302 62.41878839 23.1640625 66.3515625 C23.20676862 69.02215107 23.25088714 71.69271399 23.29492188 74.36328125 C23.40183597 80.90097329 23.50364951 87.43872979 23.6015625 93.9765625 C24.15094482 94.23348877 24.70032715 94.49041504 25.26635742 94.75512695 C27.77523051 95.93034289 30.2821534 97.10966325 32.7890625 98.2890625 C33.65337891 98.69318359 34.51769531 99.09730469 35.40820312 99.51367188 C38.9149273 101.16626603 42.23804346 102.7330593 45.46484375 104.89453125 C47.53072107 106.23904061 47.53072107 106.23904061 49.64697266 105.42993164 C51.97029018 103.70238864 53.88500827 101.82829394 55.875 99.72265625 C56.69274902 98.87195557 57.51049805 98.02125488 58.35302734 97.14477539 C59.21879395 96.24364014 60.08456055 95.34250488 60.9765625 94.4140625 C77.20011548 77.91169913 94.24938243 68.51175253 117.9140625 67.6640625 C135.86367591 68.10758492 152.07661605 74.13335195 165.6015625 85.9765625 C166.82296337 88.41936423 166.41416406 89.31761477 166.0390625 91.9765625 C165.97635152 96.7974689 167.8233038 99.05036132 171.0390625 102.5390625 C174.54250889 105.87662884 174.54250889 105.87662884 178.98828125 107.359375 C180.4760951 107.22954831 181.96212794 107.07729686 183.4453125 106.90234375 C187.17728152 107.03079921 189.13408394 109.26497338 191.69140625 111.796875 C202.0101719 123.5716628 208.64841665 138.23521437 209.6015625 153.9765625 C209.68083984 155.26240234 209.68083984 155.26240234 209.76171875 156.57421875 C210.30714144 174.19374309 205.3909337 190.03719097 194.6015625 203.9765625 C194.13363281 204.59789062 193.66570312 205.21921875 193.18359375 205.859375 C190.97638298 208.67102194 189.11366051 211.01871759 185.6015625 211.9765625 C179.25769138 212.12074139 175.94644719 208.04665131 171.6015625 203.9765625 C168.31439001 200.7661851 165.09436454 197.49296219 161.87890625 194.2109375 C160.49711842 192.81249198 159.11531825 191.4140584 157.7328043 190.01633072 C154.35965554 186.6053576 150.99122544 183.18985716 147.63452148 179.76269531 C145.73819437 177.82712376 143.83657846 175.89705076 141.92884827 173.97271729 C140.14205402 172.17003719 138.36304298 170.35959941 136.59300232 168.54046631 C131.17290562 163.09688103 127.08756114 159.56905289 119.2890625 158.5390625 C115.02334938 159.04516406 111.64823005 160.37711341 107.73828125 162.1015625 C105.6015625 162.9765625 105.6015625 162.9765625 103.6015625 162.9765625 C104.12157837 163.91616821 104.12157837 163.91616821 104.65209961 164.87475586 C119.52077713 191.97463513 139.16423669 232.69123778 133.6015625 264.9765625 C132.1772953 267.24673426 131.21783908 268.64641433 128.8515625 269.9140625 C125.10023793 270.01826596 122.79898685 268.87133248 119.6015625 266.9765625 C117.58547768 261.57708273 116.99861968 256.04505354 116.2890625 250.3515625 C112.9239887 225.65552704 105.45086613 202.90271385 93.6015625 180.9765625 C93.27687988 180.36731934 92.95219727 179.75807617 92.61767578 179.13037109 C73.56484905 143.59481023 42.59213891 116.09981853 3.79296875 104.3828125 C-29.02233841 95.15179028 -64.41799596 99.73964469 -94.234375 116.0390625 C-134.52748647 138.87372295 -161.51645352 179.77875358 -173.73071289 223.85400391 C-173.97168701 224.76069824 -174.21266113 225.66739258 -174.4609375 226.6015625 C-174.72060303 227.5714209 -174.98026855 228.5412793 -175.24780273 229.54052734 C-177.445481 238.21364351 -178.54107301 246.89851146 -179.19750977 255.81494141 C-179.85959451 263.2774527 -179.85959451 263.2774527 -182.828125 267.12890625 C-185.54051954 269.07869746 -187.06768256 269.89115853 -190.3984375 269.9765625 C-192.93517317 269.17930272 -194.04418458 268.50855904 -195.51953125 266.29296875 C-204.45157502 242.75207116 -183.79332485 200.35385379 -174.53955078 179.46826172 C-172.60482073 175.24364577 -170.51562433 171.11510155 -168.26171875 167.05078125 C-167.07751139 164.8452106 -167.07751139 164.8452106 -168.3984375 161.9765625 C-173.523697 158.33493075 -179.33263476 157.96559538 -185.3984375 158.9765625 C-192.74535584 161.81867741 -197.54719297 166.66829306 -202.91972542 172.25832176 C-204.46190286 173.86145938 -206.01760378 175.45031727 -207.57749939 177.03620911 C-212.00516848 181.54289588 -216.40644469 186.07504983 -220.80200195 190.61303711 C-223.50230133 193.39890974 -226.21719161 196.16988963 -228.94106865 198.93270302 C-229.97117177 199.98387365 -230.99540742 201.04082899 -232.0134449 202.10368919 C-233.43693101 203.58980322 -234.8781701 205.05638435 -236.32446289 206.52026367 C-237.13750381 207.35869308 -237.95054474 208.1971225 -238.78822327 209.06095886 C-242.03089693 211.44071658 -244.41647688 211.79200927 -248.3984375 211.9765625 C-258.34397376 207.05707403 -264.65844121 193.83530272 -268.3984375 183.9765625 C-274.31378422 165.71292949 -273.8830627 146.38257152 -265.90234375 128.77734375 C-261.10822053 119.84906752 -254.37940293 112.25204741 -247.3984375 104.9765625 C-246.72312988 104.26870605 -246.04782227 103.56084961 -245.35205078 102.83154297 C-226.76641856 83.46244147 -208.3050087 68.51106084 -180.3359375 67.7265625 C-162.13544954 67.91615092 -143.970855 74.24446392 -130.92782593 87.19927979 C-127.89089607 90.30338271 -124.8999672 93.44869253 -121.92260742 96.60986328 C-120.43658224 98.17985137 -118.9359574 99.73472865 -117.43359375 101.2890625 C-116.12467163 102.67544922 -116.12467163 102.67544922 -114.78930664 104.08984375 C-112.63417918 106.21091479 -112.63417918 106.21091479 -110.32519531 105.89428711 C-108.36459445 104.96044288 -106.43434838 104.03499713 -104.53515625 102.98046875 C-103.81263672 102.58666016 -103.09011719 102.19285156 -102.34570312 101.78710938 C-100.84982427 100.96094983 -99.3550144 100.13285151 -97.86132812 99.30273438 C-96.77174805 98.71008789 -96.77174805 98.71008789 -95.66015625 98.10546875 C-94.68502075 97.56515015 -94.68502075 97.56515015 -93.69018555 97.01391602 C-90.67882483 95.65083179 -87.58629699 94.83123136 -84.3984375 93.9765625 C-84.40731995 93.25374588 -84.41620239 92.53092926 -84.425354 91.78620911 C-84.50606516 84.91791187 -84.56668573 78.04968705 -84.60568619 71.18103504 C-84.62641216 67.65116174 -84.6544481 64.12168575 -84.70019531 60.59204102 C-84.75265314 56.51835691 -84.77150619 52.445079 -84.7890625 48.37109375 C-84.82003021 46.50309868 -84.82003021 46.50309868 -84.85162354 44.59736633 C-84.85543992 29.43582604 -80.04600816 16.82724757 -69.6484375 5.7265625 C-50.34019168 -12.35870422 -21.89740633 -14.82965558 0 0 Z " fill="#010100" transform="translate(287.3984375,9.0234375)"/>
<path d="M0 0 C4.50456637 0.7902748 5.72084017 2.09430894 8.5625 5.625 C9.27734375 8.84765625 9.27734375 8.84765625 9.5 12.6875 C12.97378916 52.42782517 28.93761441 93.24844406 56.55859375 122.5 C58.44467659 124.50005666 60.18724661 126.56898998 61.9375 128.6875 C79.06461328 148.25012021 106.36213027 162.34743566 131.5625 167.625 C132.48546875 167.83125 133.4084375 168.0375 134.359375 168.25 C164.22224934 173.93816654 196.41893488 167.80513459 222.5625 152.625 C223.15820801 152.28243164 223.75391602 151.93986328 224.36767578 151.58691406 C233.98468865 145.96498281 242.34866203 139.1173522 250.5625 131.625 C251.36171875 130.90957031 252.1609375 130.19414062 252.984375 129.45703125 C264.0702385 118.99828777 273.06454605 105.82268339 280.5625 92.625 C281.54283203 90.94277344 281.54283203 90.94277344 282.54296875 89.2265625 C295.93297554 65.65237884 303.5301121 38.39108702 306.34790039 11.52929688 C306.81471377 7.66468829 307.11048342 5.24463939 309.4375 2.0546875 C312.61685554 -0.08436421 314.82734488 0.09140641 318.5625 0.625 C321.24712637 2.68807733 322.42617811 3.84050194 323.01245117 7.21435547 C322.77545783 14.49562374 322.07923949 21.56483675 320.875 28.75 C320.70073486 29.82660889 320.52646973 30.90321777 320.34692383 32.01245117 C319.06874014 39.54674268 317.36180251 46.85866362 315.05004883 54.14306641 C313.55541565 58.90987726 313.55541565 58.90987726 314.5625 63.625 C316.29080636 65.73432805 316.29080636 65.73432805 318.5 67.78515625 C319.30848389 68.57301514 320.11696777 69.36087402 320.94995117 70.17260742 C321.81209229 71.00252197 322.6742334 71.83243652 323.5625 72.6875 C341.45508556 90.31513288 353.66647368 107.00374445 354 132.9375 C353.8806154 151.56298932 348.15156491 168.18024984 335.421875 181.98828125 C332.4651243 184.59096727 330.78271323 185.69306609 326.7638855 185.46888733 C322.74260834 184.40887602 321.11289418 182.7792548 318.19970703 179.82983398 C317.70139877 179.33225586 317.20309052 178.83467773 316.68968201 178.32202148 C315.05441774 176.68328883 313.43755455 175.02759843 311.8203125 173.37109375 C310.68655155 172.22800205 309.55167763 171.08601325 308.41574097 169.94508362 C305.43557305 166.9458668 302.47072832 163.93193846 299.5088501 160.91467285 C296.48117632 157.83576168 293.43921741 154.77103637 290.3984375 151.70507812 C284.43907014 145.69216024 278.49581954 139.66362185 272.5625 133.625 C271.41177002 134.77814697 271.41177002 134.77814697 270.23779297 135.95458984 C248.17128518 157.98082293 216.32564292 182.67637393 183.62109375 183.71875 C182.94175781 183.6878125 182.26242187 183.656875 181.5625 183.625 C181.59730469 184.45902344 181.63210938 185.29304687 181.66796875 186.15234375 C181.89441875 195.56619387 181.34408901 202.53167293 175.3125 210 C170.04692064 215.48406813 165.68819047 216.77619857 158.25 217.125 C151.75586391 216.93838689 146.72321327 215.66786924 141.5625 211.625 C135.92524372 205.15941218 134.54545723 199.79062582 134 191.375 C133.91621094 190.11171875 133.83242187 188.8484375 133.74609375 187.546875 C133.68550781 186.58265625 133.62492188 185.6184375 133.5625 184.625 C132.55574219 184.41746094 131.54898438 184.20992187 130.51171875 183.99609375 C95.54227456 176.47315623 68.34243706 158.96811744 43.5625 133.625 C37.47052364 138.65725389 31.94421561 144.14648892 26.39453125 149.765625 C25.42799852 150.73911763 24.46108792 151.71223522 23.49382019 152.68499756 C19.41673559 156.78634795 15.34552022 160.89348908 11.27856445 165.00488281 C8.77844992 167.53179734 6.27346992 170.0538035 3.76544762 172.57286835 C2.35473354 173.99277478 0.94963297 175.41825128 -0.45536804 176.84381104 C-1.31338516 177.70520691 -2.17140228 178.56660278 -3.05541992 179.45410156 C-3.80707932 180.21321838 -4.55873871 180.97233521 -5.33317566 181.75445557 C-8.24448803 184.3423357 -10.28075823 185.57242083 -14.1875 185.75 C-23.36391521 182.57354858 -28.46167946 172.83585917 -32.54882812 164.55322266 C-40.82633572 146.59285042 -41.426067 127.18991466 -35.25 108.4375 C-30.2536398 95.40035021 -21.83186091 85.71001499 -11.82421875 76.2421875 C-11.00219971 75.45271729 -10.18018066 74.66324707 -9.33325195 73.84985352 C-7.67087539 72.25896317 -5.99119629 70.68593188 -4.29370117 69.13256836 C0.32497157 64.94660153 0.32497157 64.94660153 1.734375 59.16796875 C1.34765625 57.99878906 0.9609375 56.82960938 0.5625 55.625 C0.19050937 54.13788521 -0.17071312 52.64805191 -0.5234375 51.15625 C-0.83438354 49.94497437 -0.83438354 49.94497437 -1.15161133 48.70922852 C-10.65562034 11.54634142 -10.65562034 11.54634142 -5.875 2.75 C-3.4375 0.625 -3.4375 0.625 0 0 Z " fill="#010100" transform="translate(98.4375,295.375)"/>
<path d="M0 0 C31.84200088 -1.06625668 62.92565609 7.71322735 87.91015625 28.07373047 C88.70244629 28.71810059 88.70244629 28.71810059 89.51074219 29.37548828 C127.62621781 60.54499184 150.71535568 106.66727717 156.4296875 155.36669922 C156.5119458 156.05352783 156.5942041 156.74035645 156.67895508 157.44799805 C156.89636033 159.32934553 157.09151767 161.21322596 157.28515625 163.09716797 C157.94086849 166.21999753 158.30556683 167.30116267 160.91015625 169.07373047 C162.23015625 169.40373047 163.55015625 169.73373047 164.91015625 170.07373047 C164.91015625 176.01373047 164.91015625 181.95373047 164.91015625 188.07373047 C163.26015625 188.73373047 161.61015625 189.39373047 159.91015625 190.07373047 C157.36318436 192.62070236 157.44093185 194.03624147 156.98046875 197.57763672 C156.82747314 198.70194092 156.67447754 199.82624512 156.5168457 200.98461914 C156.35788818 202.18965088 156.19893066 203.39468262 156.03515625 204.63623047 C149.222913 252.60407861 127.43445639 300.06728639 88.30761719 330.3125 C84.60674549 333.05310343 80.78736374 335.58797822 76.91015625 338.07373047 C75.93304688 338.70150391 74.9559375 339.32927734 73.94921875 339.97607422 C47.04562272 356.45723157 12.40071832 362.90650315 -18.45703125 355.96826172 C-19.65585938 355.67306641 -20.8546875 355.37787109 -22.08984375 355.07373047 C-23.26804687 354.83009766 -24.44625 354.58646484 -25.66015625 354.33544922 C-41.60300788 350.70268281 -57.05162219 342.87735495 -70.08984375 333.07373047 C-70.92128906 332.45111328 -71.75273437 331.82849609 -72.609375 331.18701172 C-83.35985266 322.84057788 -92.80724604 313.88040449 -101.08984375 303.07373047 C-101.816875 302.16236328 -102.54390625 301.25099609 -103.29296875 300.31201172 C-113.59329935 287.11246219 -121.48683821 272.42031463 -128.08984375 257.07373047 C-128.38987305 256.3927832 -128.68990234 255.71183594 -128.99902344 255.01025391 C-133.73395211 244.06879933 -136.49076705 232.75937934 -138.96484375 221.13623047 C-139.11631866 220.43030762 -139.26779358 219.72438477 -139.42385864 218.99707031 C-141.08410364 211.17473373 -142.43183669 203.5539201 -142.59033203 195.5246582 C-143.2536434 192.27002337 -144.50179976 191.10018545 -147.08984375 189.07373047 C-148.40984375 188.74373047 -149.72984375 188.41373047 -151.08984375 188.07373047 C-151.08984375 182.13373047 -151.08984375 176.19373047 -151.08984375 170.07373047 C-148.77984375 169.08373047 -146.46984375 168.09373047 -144.08984375 167.07373047 C-142.91059156 164.71522608 -142.81096428 162.95232886 -142.58203125 160.32373047 C-139.21198255 125.48947499 -127.74193442 91.56982621 -107.08984375 63.07373047 C-106.7119873 62.54779297 -106.33413086 62.02185547 -105.94482422 61.47998047 C-82.35385073 28.99090939 -49.6804538 7.51974467 -10.07421875 0.54248047 C-6.71447786 0.16213244 -3.3760585 0.11910861 0 0 Z M-83.08984375 56.07373047 C-113.14411629 89.3487724 -128.29579339 135.15544799 -128.33984375 179.44873047 C-128.34085083 180.15415985 -128.34185791 180.85958923 -128.34289551 181.58639526 C-128.32644138 198.68925376 -126.1584386 214.69737866 -121.08984375 231.07373047 C-120.8475 231.8689209 -120.60515625 232.66411133 -120.35546875 233.48339844 C-108.1244987 273.18158983 -84.52903254 310.12752451 -47.08984375 330.07373047 C-19.20944579 344.34849422 11.8041554 347.28862446 41.78735352 338.07324219 C61.84877531 331.56488702 77.90025791 320.66726547 92.91015625 306.07373047 C93.46993164 305.53659424 94.02970703 304.99945801 94.60644531 304.44604492 C98.72126874 300.434261 102.35415572 296.24382159 105.78515625 291.63623047 C106.29981445 290.9452124 106.81447266 290.25419434 107.34472656 289.54223633 C112.55201286 282.40605612 116.88514525 274.92685636 120.91015625 267.07373047 C121.25530273 266.40792969 121.60044922 265.74212891 121.95605469 265.05615234 C133.36957175 242.78639792 141.9643568 216.68544413 142.11328125 191.49951172 C142.1203862 190.70196976 142.12749115 189.9044278 142.1348114 189.0827179 C142.44495742 164.41250559 142.44495742 164.41250559 138.91015625 140.07373047 C138.68972656 139.11466797 138.46929687 138.15560547 138.2421875 137.16748047 C131.66008891 109.58535304 120.09545137 82.31334938 100.91015625 61.07373047 C99.76740234 59.77048828 99.76740234 59.77048828 98.6015625 58.44091797 C96.40157149 55.95526202 94.16506222 53.50953374 91.91015625 51.07373047 C91.38421875 50.48205078 90.85828125 49.89037109 90.31640625 49.28076172 C72.42910506 30.07016528 43.42208911 16.40310454 17.29345703 14.92578125 C-22.0133294 13.54091463 -55.99224333 27.68649921 -83.08984375 56.07373047 Z " fill="#965C33" transform="translate(249.08984375,107.92626953125)"/>
<path d="M0 0 C48.3284074 -4.17123223 48.3284074 -4.17123223 57.77197266 2.00244141 C63.18577989 7.39176562 65.41425741 14.09513205 67.66650391 21.26416016 C69.82984738 27.3248489 73.16205892 32.63714459 76.4788208 38.12634277 C78.18649422 40.98038395 79.80903064 43.87957053 81.44140625 46.77734375 C84.16480293 51.58546118 86.99824743 56.30681551 89.94897461 60.97875977 C91 63 91 63 91 66 C89.02610063 67.59145636 87.14169068 68.91796245 85 70.25 C84.37714111 70.6433252 83.75428223 71.03665039 83.11254883 71.44189453 C76.07853133 75.75427693 68.65399101 78.96322735 61 82 C60.16855469 82.33902344 59.33710938 82.67804688 58.48046875 83.02734375 C35.26232093 91.6856883 7.04815375 88.25544706 -15.30859375 78.77734375 C-19.41536974 76.86394691 -23.34825419 74.67428525 -27.25 72.375 C-27.88252686 72.00286377 -28.51505371 71.63072754 -29.16674805 71.24731445 C-32.53460546 69.17560115 -34.744169 67.21384424 -37 64 C-29.43084878 50.44122677 -21.69525531 36.99823723 -13.734375 23.66674805 C-9.05985985 15.83108007 -4.50280881 7.93507686 0 0 Z " fill="#B16C3B" transform="translate(229,348)"/>
<path d="M0 0 C0.6590332 0.21430664 1.31806641 0.42861328 1.99707031 0.64941406 C13.47378109 4.42009809 24.43774508 9.50337782 34 17 C33.41783367 20.83291486 32.31079893 23.57153606 30.33203125 26.89453125 C29.77531738 27.8383667 29.21860352 28.78220215 28.64501953 29.75463867 C28.04028809 30.76373291 27.43555664 31.77282715 26.8125 32.8125 C25.5348979 34.97120129 24.25756189 37.13006007 22.98046875 39.2890625 C22.32224121 40.39668945 21.66401367 41.50431641 20.98583984 42.64550781 C17.27203082 48.91889556 13.62700602 55.23255386 9.97192383 61.5402832 C8.88977525 63.39951783 7.7786454 65.24217706 6.63964844 67.06713867 C4.87514624 70.01914168 4.87514624 70.01914168 3.77441406 73.56762695 C2.13683632 77.56609128 0.73463031 80.72519727 -3 83 C-11.88282787 85.23223572 -21.44274711 84.21079252 -30.5 83.8125 C-33.06495866 83.747259 -35.6300755 83.68794896 -38.1953125 83.63476562 C-44.4670017 83.49182033 -50.73277072 83.27464399 -57 83 C-57.41698654 82.2751088 -57.83397308 81.55021759 -58.26359558 80.80335999 C-65.47509936 68.26849176 -72.70875435 55.74726837 -80.01638794 43.26815796 C-80.74860962 42.01775545 -81.48044893 40.76712894 -82.21188354 39.51626587 C-82.91152996 38.32013377 -83.61185447 37.124398 -84.31291199 35.92909241 C-85.28645686 34.26867942 -86.25705168 32.60653783 -87.22753906 30.94433594 C-88.77887189 28.36732852 -90.42194531 25.89683111 -92.1171875 23.4140625 C-92.73851562 22.28742188 -93.35984375 21.16078125 -94 20 C-91.05091504 11.71397306 -78.18095538 7.23197164 -70.8203125 3.640625 C-66.72946206 1.80864478 -62.54041647 0.41088576 -58.25 -0.875 C-57.57759277 -1.07818848 -56.90518555 -1.28137695 -56.21240234 -1.49072266 C-38.45769266 -6.47412234 -17.38184986 -5.86682983 0 0 Z " fill="#B26C3B" transform="translate(286,143)"/>
<path d="M0 0 C3.7701295 0.12608638 7.5242526 0.12318675 11.29614258 0.10253906 C13.69664476 0.13400806 16.09706431 0.17281917 18.49731445 0.21972656 C19.61929733 0.22033081 20.74128021 0.22093506 21.89726257 0.22155762 C29.47755746 0.56564627 29.47755746 0.56564627 32.53921509 3.51210022 C34.10495387 5.81750371 35.36703542 8.11904847 36.5793457 10.62597656 C37.19680664 11.66810303 37.81426758 12.71022949 38.45043945 13.78393555 C38.96735352 14.72052002 39.48426758 15.65710449 40.0168457 16.62207031 C40.60208008 17.67587891 41.18731445 18.7296875 41.7902832 19.81542969 C42.38067383 20.88728516 42.97106445 21.95914062 43.5793457 23.06347656 C44.76532205 25.2088508 45.95280526 27.35339278 47.1418457 29.49707031 C47.71032227 30.52944824 48.27879883 31.56182617 48.86450195 32.62548828 C50.95703896 36.28683221 53.24404445 39.80435646 55.6105957 43.29418945 C56.93693603 46.48669864 56.48384246 48.31966526 55.5793457 51.62597656 C54.33935547 54.24047852 54.33935547 54.24047852 52.77075195 56.86425781 C52.19284912 57.84193115 51.61494629 58.81960449 51.01953125 59.8269043 C50.39989502 60.85372314 49.78025879 61.88054199 49.1418457 62.93847656 C48.51383057 63.99558838 47.88581543 65.0527002 47.23876953 66.1418457 C45.96491139 68.28548958 44.68750683 70.42703014 43.40649414 72.56640625 C41.74340042 75.35126603 40.09753024 78.14508608 38.4621582 80.94628906 C38.00252686 81.73350342 37.54289551 82.52071777 37.06933594 83.33178711 C36.63951416 84.06824463 36.20969238 84.80470215 35.7668457 85.56347656 C31.73540796 92.4699143 31.73540796 92.4699143 30.5793457 93.62597656 C-14.88105694 99.79555252 -14.88105694 99.79555252 -27.15454102 91.60449219 C-32.3386038 86.32986505 -34.39158395 79.95953542 -36.33959961 72.94970703 C-38.13033555 67.44404328 -41.31247658 62.84592361 -44.4206543 58.00097656 C-45.46635222 56.33665489 -46.48950759 54.65782592 -47.4831543 52.96191406 C-47.90725586 52.26630371 -48.33135742 51.57069336 -48.76831055 50.85400391 C-49.97682604 46.72641693 -47.84408727 43.44602862 -45.95947266 39.79614258 C-45.39881104 38.83377686 -44.83814941 37.87141113 -44.26049805 36.87988281 C-43.63079102 35.79384766 -43.00108398 34.7078125 -42.35229492 33.58886719 C-41.69422852 32.46673828 -41.03616211 31.34460938 -40.3581543 30.18847656 C-39.41166016 28.55749023 -39.41166016 28.55749023 -38.44604492 26.89355469 C-37.13728569 24.64449619 -35.79794157 22.41300283 -34.43115234 20.19873047 C-32.93342756 17.6918273 -31.86177073 15.23242618 -30.87304688 12.48681641 C-25.19823303 -1.75119021 -13.8016442 -0.48816977 0 0 Z " fill="#B26C3B" transform="translate(252.420654296875,239.3740234375)"/>
<path d="M0 0 C0.7734375 -0.01224609 1.546875 -0.02449219 2.34375 -0.03710938 C13.77719655 -0.06588483 25.29690128 3.64573226 34.125 11 C37.37853581 13.71555429 37.37853581 13.71555429 41.5 14.6875 C44.21875931 14.27839291 44.21875931 14.27839291 46.55859375 13.31640625 C49.25 13.1875 49.25 13.1875 52.14453125 15.49609375 C53.13286114 16.52422216 54.10515567 17.56795893 55.0625 18.625 C55.81563477 19.41874023 55.81563477 19.41874023 56.58398438 20.22851562 C57.81995168 21.53510964 59.03688595 22.85966063 60.25 24.1875 C59.92128906 24.77917969 59.59257812 25.37085937 59.25390625 25.98046875 C57.66570169 29.47204687 58.19681147 31.53231628 59.25 35.1875 C60.83176647 37.02999721 62.56081244 38.61396294 64.34375 40.26171875 C73.69036433 49.70409757 76.62752252 62.71288434 76.8125 75.5625 C76.73284231 88.12822035 73.62888945 98.85705476 66.25 109.1875 C60.77452319 104.64176176 55.78372202 99.78246659 50.82421875 94.68359375 C49.20699123 93.03911243 47.5891331 91.39525106 45.97070312 89.75195312 C43.4502392 87.18829947 40.93379624 84.62118958 38.42797852 82.04321289 C35.98837969 79.5365987 33.53280972 77.04656459 31.07421875 74.55859375 C30.33846115 73.79389267 29.60270355 73.02919159 28.84465027 72.24131775 C20.88899067 64.24567743 11.4049528 59.31257572 0 58.8125 C-8.94395376 58.98449911 -16.19970721 62.7614663 -23.75 67.1875 C-24.41902344 66.37410156 -25.08804687 65.56070313 -25.77734375 64.72265625 C-31.81919122 57.47800879 -38.13812355 50.60617125 -44.8125 43.9375 C-45.55040771 43.19894775 -46.28831543 42.46039551 -47.04858398 41.69946289 C-49.87076385 38.90599754 -52.43574051 36.39700633 -55.75 34.1875 C-49.88887178 21.04364694 -32.96669636 8.22005035 -19.80078125 3.0234375 C-17.45542082 2.29072636 -15.15286931 1.69147259 -12.75 1.1875 C-12.13044434 1.01694092 -11.51088867 0.84638184 -10.87255859 0.6706543 C-7.27615888 -0.14798787 -3.67380225 0.00300147 0 0 Z " fill="#A9D566" transform="translate(404.75,92.8125)"/>
<path d="M0 0 C2.59987948 2.28551497 5.06234239 4.65879395 7.515625 7.1015625 C8.10794922 7.68695801 8.70027344 8.27235352 9.31054688 8.87548828 C13.40591309 12.92445684 17.46972621 17.00319528 21.515625 21.1015625 C20.03453627 24.5550042 18.08740801 26.75077576 15.41015625 29.3671875 C14.18135742 30.57955078 14.18135742 30.57955078 12.92773438 31.81640625 C12.06986328 32.65300781 11.21199219 33.48960937 10.328125 34.3515625 C3.2746422 41.25866249 -3.61171252 48.14271807 -9.484375 56.1015625 C-11.459894 55.12037346 -13.42814421 54.13124308 -15.37890625 53.1015625 C-24.42921415 48.38286836 -33.26120634 46.47805084 -43.38671875 48.75390625 C-54.17768016 52.28026531 -61.84597256 60.16485483 -69.67578125 68.09765625 C-70.92185402 69.34797386 -70.92185402 69.34797386 -72.19309998 70.62355042 C-74.81580598 73.25735013 -77.43142783 75.89805643 -80.046875 78.5390625 C-81.83612271 80.33835397 -83.62583196 82.13718661 -85.41601562 83.93554688 C-89.77748277 88.31893081 -94.13317321 92.70798964 -98.484375 97.1015625 C-101.484375 96.1015625 -101.484375 96.1015625 -103.01953125 93.5546875 C-103.52355469 92.49765625 -104.02757812 91.440625 -104.546875 90.3515625 C-105.05347656 89.30484375 -105.56007813 88.258125 -106.08203125 87.1796875 C-111.37437594 75.56306462 -112.7376056 61.13181299 -108.859375 48.7890625 C-108.11149894 46.87553133 -107.32024457 44.97832626 -106.484375 43.1015625 C-105.90042969 41.75191406 -105.90042969 41.75191406 -105.3046875 40.375 C-101.58343392 32.73431956 -96.12224956 26.86838653 -90.22753906 20.87548828 C-88.38954195 19.00505593 -86.57392759 17.11432548 -84.7578125 15.22265625 C-61.88129429 -8.38144569 -29.57055964 -22.59637105 0 0 Z " fill="#A9D566" transform="translate(141.484375,103.8984375)"/>
<path d="M0 0 C3.6667636 1.22225453 3.87746507 2.05009257 5.6796875 5.35546875 C6.18991455 6.277229 6.7001416 7.19898926 7.22583008 8.14868164 C8.04216919 9.65289673 8.04216919 9.65289673 8.875 11.1875 C10.04103622 13.29534105 11.20905761 15.40208495 12.37890625 17.5078125 C12.97719238 18.58708008 13.57547852 19.66634766 14.19189453 20.77832031 C16.98473568 25.7546006 19.89380092 30.65932619 22.8125 35.5625 C23.88414071 37.37498455 24.95575607 39.18748409 26.02734375 41 C27.87422454 44.11701842 29.74066035 47.22039745 31.62890625 50.3125 C32.37787028 51.56234057 33.12658957 52.81232785 33.875 54.0625 C34.51179688 55.10535156 35.14859375 56.14820313 35.8046875 57.22265625 C37.22913897 60.53241113 36.96484084 61.59062278 36 65 C34.77587891 67.46923828 34.77587891 67.46923828 33.2265625 70.0703125 C32.64777344 71.05128906 32.06898438 72.03226562 31.47265625 73.04296875 C30.86292969 74.06003906 30.25320312 75.07710938 29.625 76.125 C28.4499379 78.10642525 27.27547951 80.08820862 26.1015625 82.0703125 C25.43970947 83.12532959 24.77785645 84.18034668 24.09594727 85.26733398 C22.40667188 88.08596494 21.21452657 90.93236316 20.04272461 94.00024414 C17.81744745 99.35363196 15.61650351 104.31370898 11 108 C2.22316972 111.08986343 -7.57706513 109.77904091 -16.6875 109.1875 C-19.23861811 109.09210234 -21.79007817 109.00542596 -24.34179688 108.92773438 C-30.56870481 108.71920928 -36.78276102 108.40226906 -43 108 C-43.00614233 106.24056429 -43.01052295 104.48112236 -43.01416016 102.72167969 C-43.01678864 101.74189148 -43.01941711 100.76210327 -43.02212524 99.75262451 C-42.87091568 80.94048596 -36.76951481 60.9840843 -29 44 C-28.70899414 43.36046387 -28.41798828 42.72092773 -28.11816406 42.06201172 C-20.88647541 26.36274264 -11.44445699 12.90221101 0 0 Z " fill="#B26C3B" transform="translate(179,172)"/>
<path d="M0 0 C7.97094607 6.63143023 14.62339919 14.74083491 16.12149048 25.31259155 C16.2612188 28.59909485 16.25125653 31.84819072 16.17578125 35.13671875 C16.16870651 36.31974075 16.16163177 37.50276276 16.15434265 38.72163391 C16.12659081 42.46092825 16.0638849 46.19866636 16 49.9375 C15.97489247 52.48891051 15.95208364 55.04034473 15.93164062 57.59179688 C15.87682716 63.81171938 15.79339455 70.03074847 15.6875 76.25 C14.60573738 76.0711879 14.60573738 76.0711879 13.50212097 75.88876343 C10.1629028 75.34180542 6.82175992 74.80757981 3.48046875 74.2734375 C2.346698 74.08579834 1.21292725 73.89815918 0.0447998 73.70483398 C-17.07067515 70.99485841 -36.15009201 70.39278097 -52.96484375 75.3203125 C-56.3125 76.25 -56.3125 76.25 -60.3125 76.25 C-60.38897781 69.16999279 -60.4412786 62.09009334 -60.47729492 55.00976562 C-60.49232006 52.60445169 -60.51274596 50.19916487 -60.53881836 47.79394531 C-60.575478 44.32349936 -60.59228971 40.85341773 -60.60546875 37.3828125 C-60.62095261 36.31886261 -60.63643646 35.25491272 -60.65238953 34.15872192 C-60.65500236 22.39363401 -57.60102188 12.97128037 -49.49609375 4.30859375 C-35.73501353 -8.56288128 -15.80738069 -11.14740141 0 0 Z " fill="#81B138" transform="translate(278.3125,21.75)"/>
<path d="M0 0 C17.82 0 35.64 0 54 0 C61.375 12.9375 61.375 12.9375 63.76879883 17.14648438 C66.89047468 22.62749809 70.02297599 28.09305684 73.32421875 33.46875 C74.03022217 34.62515991 74.03022217 34.62515991 74.75048828 35.80493164 C75.60228863 37.18946385 76.46593636 38.56680228 77.34326172 39.93530273 C80.05997653 44.36626107 80.05997653 44.36626107 79.77587891 47.36816406 C78.90141089 50.33442121 77.67840903 52.66430175 76.11328125 55.33203125 C75.51112793 56.36666504 74.90897461 57.40129883 74.28857422 58.46728516 C73.63646973 59.57120605 72.98436523 60.67512695 72.3125 61.8125 C71.63753876 62.96625712 70.96323117 64.12039687 70.28955078 65.27490234 C68.89574154 67.66117899 67.49799827 70.04508462 66.09716797 72.42724609 C64.07514837 75.86787004 62.06917019 79.31765813 60.06640625 82.76953125 C50.02564796 100.05984987 50.02564796 100.05984987 45 108 C34.05755949 102.94942197 26.80218763 88.08725589 21 78 C20.64695801 77.39269043 20.29391602 76.78538086 19.93017578 76.15966797 C6.87562975 53.26890582 0 26.25912737 0 0 Z " fill="#B26C3B" transform="translate(136,294)"/>
<path d="M0 0 C15.5715489 6.01134213 26.46458627 32.95599651 32.80859375 46.89453125 C41.34024352 66.32672888 45 86.88783452 45 108 C27.18 108 9.36 108 -9 108 C-14.445 98.1 -14.445 98.1 -20 88 C-23.12710476 82.61542343 -26.28016493 77.25181686 -29.47265625 71.90625 C-30.05144531 70.9265625 -30.63023437 69.946875 -31.2265625 68.9375 C-31.99347412 67.65166016 -31.99347412 67.65166016 -32.77587891 66.33984375 C-34.82428314 62.42442569 -34.82428314 62.42442569 -35 60 C-33.8828125 57.47998047 -33.8828125 57.47998047 -32.125 54.6171875 C-31.4762793 53.54436523 -30.82755859 52.47154297 -30.15917969 51.36621094 C-29.43947073 50.20246307 -28.71974374 49.03872636 -28 47.875 C-26.89857523 46.06313831 -25.80174795 44.24854383 -24.70501709 42.43383789 C-23.94850907 41.18281137 -23.19055389 39.93265891 -22.43121338 38.68334961 C-18.43318635 32.09856329 -14.58461912 25.43086517 -10.75 18.75 C-10.13125 17.67476074 -9.5125 16.59952148 -8.875 15.49169922 C-5.90785073 10.33283101 -2.9495222 5.16896464 0 0 Z " fill="#B16B3B" transform="translate(331,172)"/>
<path d="M0 0 C2.55573896 0.08534244 5.11175059 0.16289719 7.66796875 0.23242188 C13.90962479 0.41910981 20.14104665 0.70283224 26.375 1.0625 C26.3852251 2.6321476 26.3924434 4.20181492 26.3984375 5.77148438 C26.40278809 6.6455896 26.40713867 7.51969482 26.41162109 8.42028809 C25.91054177 44.57316135 8.62588891 80.46941225 -15.2578125 106.8671875 C-16.625 108.0625 -16.625 108.0625 -18.625 108.0625 C-19.02589844 107.35569092 -19.42679687 106.64888184 -19.83984375 105.9206543 C-35.06704548 77.56514446 -35.06704548 77.56514446 -52.4519043 50.59936523 C-53.625 48.0625 -53.625 48.0625 -52.99414062 45.07739258 C-51.69498335 42.21660564 -50.31857606 39.52757262 -48.71875 36.82421875 C-47.84863281 35.34405273 -47.84863281 35.34405273 -46.9609375 33.83398438 C-46.35507812 32.81626953 -45.74921875 31.79855469 -45.125 30.75 C-44.55007813 29.77482422 -43.97515625 28.79964844 -43.3828125 27.79492188 C-42.15768982 25.7178307 -40.90259191 23.65821133 -39.62255859 21.61450195 C-38.04961844 18.99509692 -36.9542761 16.38080455 -35.89697266 13.51635742 C-29.06590243 -3.308829 -16.15786723 -0.93549919 0 0 Z " fill="#B26C3B" transform="translate(349.625,293.9375)"/>
<path d="M0 0 C3.26483668 3.01352005 4.69111844 6.48768609 6.4375 10.5 C10.68240259 19.92615052 16.10249839 28.46538503 21.79833984 37.0715332 C22.98609188 38.97767976 23.99559474 40.99118949 25 43 C10.15 57.85 -4.7 72.7 -20 88 C-24.19871012 85.90064494 -24.66387499 85.46016833 -26.5625 81.5 C-26.95566406 80.7059375 -27.34882812 79.911875 -27.75390625 79.09375 C-30.98199778 71.07917792 -32.56025593 63.84376072 -32.5 55.1875 C-32.49427979 54.22481201 -32.48855957 53.26212402 -32.48266602 52.27026367 C-32.0370108 34.42754926 -22.03967032 21.32256243 -9.5625 9.3125 C-8.17901367 7.95608398 -8.17901367 7.95608398 -6.76757812 6.57226562 C-4.52069934 4.37195428 -2.26499033 2.18163612 0 0 Z " fill="#A8D465" transform="translate(107,373)"/>
<path d="M0 0 C16.1482416 13.63352187 31.3982936 27.67138241 33.34375 49.93359375 C34.01539195 63.59031339 30.37758295 75.41562508 23 87 C19.51027997 85.50469676 17.26534605 83.50808338 14.59863281 80.82568359 C13.7380426 79.96494232 12.87745239 79.10420105 11.99078369 78.21737671 C11.07085632 77.28712677 10.15092896 76.35687683 9.203125 75.3984375 C8.24520903 74.43678914 7.28684886 73.47558306 6.32806396 72.51480103 C3.81164875 69.99076718 1.30129893 67.46078409 -1.20782471 64.92950439 C-3.77162441 62.3452081 -6.34112918 59.76659801 -8.91015625 57.1875 C-13.94569457 52.13054303 -18.9748456 47.06727744 -24 42 C-23.53103302 41.26761612 -23.06206604 40.53523224 -22.57888794 39.78065491 C-21.95746918 38.80768967 -21.33605042 37.83472443 -20.69580078 36.83227539 C-20.0824588 35.87301651 -19.46911682 34.91375763 -18.83718872 33.9254303 C-16.05789829 29.49985315 -13.45644561 24.98043775 -10.875 20.4375 C-10.37613281 19.56931641 -9.87726563 18.70113281 -9.36328125 17.80664062 C-6.03333781 11.96837164 -2.94425436 6.04163587 0 0 Z " fill="#A8D466" transform="translate(404,374)"/>
<path d="M0 0 C4.20059624 1.40019875 5.19051525 4.36825877 7.1875 8.0625 C7.55552734 8.72572266 7.92355469 9.38894531 8.30273438 10.07226562 C9.21012062 11.71027457 10.10615573 13.35456221 11 15 C10.154375 15.9075 9.30875 16.815 8.4375 17.75 C-6.24444149 35.07950471 -13.12123946 59.21124488 -17.25 81.125 C-17.41338867 81.98262939 -17.57677734 82.84025879 -17.74511719 83.72387695 C-19.12624136 91.5534375 -19.46179687 98.92695302 -20 107 C-9.77 107 0.46 107 11 107 C11 107.33 11 107.66 11 108 C-6.82 108 -24.64 108 -43 108 C-43 85.80614376 -38.25337367 64.22778543 -29 44 C-28.70899414 43.36046387 -28.41798828 42.72092773 -28.11816406 42.06201172 C-20.88647541 26.36274264 -11.44445699 12.90221101 0 0 Z " fill="#965C32" transform="translate(179,172)"/>
<path d="M0 0 C17.82 0 35.64 0 54 0 C54 0.33 54 0.66 54 1 C43.77 1 33.54 1 23 1 C25.82966754 35.89923295 35.40989859 64.84554045 53 95 C50.36 99.29 47.72 103.58 45 108 C34.04110849 102.52055424 26.94205947 88.33042677 21 78 C20.64695801 77.39269043 20.29391602 76.78538086 19.93017578 76.15966797 C6.87562975 53.26890582 0 26.25912737 0 0 Z " fill="#965C33" transform="translate(136,294)"/>
<path d="M0 0 C-0.73114014 0.57733887 -1.46228027 1.15467773 -2.21557617 1.74951172 C-10.47596462 8.42590459 -18.09041745 15.85319128 -25.6237793 23.32861328 C-26.66719468 24.36046231 -27.71507367 25.38781693 -28.76733398 26.41064453 C-38.62593887 35.9956116 -45.99727711 45.60395255 -50 59 C-50.33837891 60.07121094 -50.33837891 60.07121094 -50.68359375 61.1640625 C-53.41549665 71.22500144 -52.65803224 82.03237911 -50 92 C-50 95 -50 95 -51.19335938 96.53393555 C-51.73798828 97.062854 -52.28261719 97.59177246 -52.84375 98.13671875 C-53.72353516 99.00200195 -53.72353516 99.00200195 -54.62109375 99.88476562 C-55.24113281 100.47966797 -55.86117187 101.07457031 -56.5 101.6875 C-57.43005859 102.59725586 -57.43005859 102.59725586 -58.37890625 103.52539062 C-59.91264707 105.02373743 -61.45548198 106.51276493 -63 108 C-66 107 -66 107 -67.53515625 104.453125 C-68.03917969 103.39609375 -68.54320312 102.3390625 -69.0625 101.25 C-69.56910156 100.20328125 -70.07570313 99.1565625 -70.59765625 98.078125 C-75.89000094 86.46150212 -77.2532306 72.03025049 -73.375 59.6875 C-72.62712394 57.77396883 -71.83586957 55.87676376 -71 54 C-70.41605469 52.65035156 -70.41605469 52.65035156 -69.8203125 51.2734375 C-66.09905892 43.63275706 -60.63787456 37.76682403 -54.74316406 31.77392578 C-52.90516695 29.90349343 -51.08955259 28.01276298 -49.2734375 26.12109375 C-35.71646963 12.13294885 -20.6105266 -0.87704368 0 0 Z " fill="#97C64E" transform="translate(106,93)"/>
<path d="M0 0 C1.60294922 0.01353516 1.60294922 0.01353516 3.23828125 0.02734375 C4.04652344 0.03894531 4.85476563 0.05054688 5.6875 0.0625 C3.4355855 1.75987453 1.17351358 3.42800146 -1.125 5.0625 C-7.84329326 10.7235999 -12.44901235 19.54369932 -14.3125 28.0625 C-14.3125 29.0525 -14.3125 30.0425 -14.3125 31.0625 C-12.67618108 32.11142238 -11.00764137 33.11156703 -9.3125 34.0625 C-7.86819145 36.95111709 -7.93561494 38.85897701 -8.3125 42.0625 C-10.625 44.9375 -10.625 44.9375 -13.3125 47.0625 C-14.3025 47.0625 -15.2925 47.0625 -16.3125 47.0625 C-16.3125 57.2925 -16.3125 67.5225 -16.3125 78.0625 C-14.9925 78.3925 -13.6725 78.7225 -12.3125 79.0625 C-13.31410156 79.18367188 -14.31570312 79.30484375 -15.34765625 79.4296875 C-16.6901403 79.59867151 -18.03258623 79.76795858 -19.375 79.9375 C-20.03177734 80.01613281 -20.68855469 80.09476562 -21.36523438 80.17578125 C-24.73099542 80.60686394 -27.77754595 81.19537027 -31.05859375 82.1328125 C-34.3125 83.0625 -34.3125 83.0625 -38.3125 83.0625 C-38.38897781 75.98249279 -38.4412786 68.90259334 -38.47729492 61.82226562 C-38.49232006 59.41695169 -38.51274596 57.01166487 -38.53881836 54.60644531 C-38.575478 51.13599936 -38.59228971 47.66591773 -38.60546875 44.1953125 C-38.62095261 43.13136261 -38.63643646 42.06741272 -38.65238953 40.97122192 C-38.65500236 29.20613401 -35.60102188 19.78378037 -27.49609375 11.12109375 C-19.53148613 3.67136985 -10.88436685 -0.11960843 0 0 Z " fill="#76A434" transform="translate(256.3125,14.9375)"/>
<path d="M0 0 C2.42999536 2.27364177 3.42805835 3.68273845 4 7 C2.7934375 7.86625 2.7934375 7.86625 1.5625 8.75 C-6.61446743 15.60935183 -12.32265119 25.09278968 -16 35 C-16.31839844 35.81339844 -16.63679688 36.62679687 -16.96484375 37.46484375 C-21.00554261 49.54969886 -20.36140405 64.12847093 -16 76 C-15.608125 77.216875 -15.21625 78.43375 -14.8125 79.6875 C-14.544375 80.450625 -14.27625 81.21375 -14 82 C-15.98 83.98 -17.96 85.96 -20 88 C-23.67420463 86.56464193 -24.87322991 85.02349405 -26.5625 81.5 C-26.95566406 80.7059375 -27.34882812 79.911875 -27.75390625 79.09375 C-30.98199778 71.07917792 -32.56025593 63.84376072 -32.5 55.1875 C-32.49427979 54.22481201 -32.48855957 53.26212402 -32.48266602 52.27026367 C-32.0370108 34.42754926 -22.03967032 21.32256243 -9.5625 9.3125 C-8.17901367 7.95608398 -8.17901367 7.95608398 -6.76757812 6.57226562 C-4.52069934 4.37195428 -2.26499033 2.18163612 0 0 Z " fill="#96C64D" transform="translate(107,373)"/>
<path d="M0 0 C3.67447136 1.83723568 5.48165013 3.23756368 8.30957031 6.08251953 C9.5704245 7.34360031 9.5704245 7.34360031 10.85675049 8.63015747 C11.75480408 9.53853363 12.65285767 10.44690979 13.578125 11.3828125 C14.5046991 12.31221649 15.43127319 13.24162048 16.38592529 14.19918823 C18.84315789 16.6640385 21.29432361 19.13483666 23.7442627 21.60693359 C26.24773809 24.13090765 28.75692063 26.64919388 31.265625 29.16796875 C36.18267771 34.10643844 41.09280621 39.0517339 46 44 C44.02 47.96 42.04 51.92 40 56 C36.29250701 54.1462535 34.45754745 52.70141537 31.59863281 49.82568359 C30.7380426 48.96494232 29.87745239 48.10420105 28.99078369 47.21737671 C28.07085632 46.28712677 27.15092896 45.35687683 26.203125 44.3984375 C25.24520903 43.43678914 24.28684886 42.47558306 23.32806396 41.51480103 C20.81164875 38.99076718 18.30129893 36.46078409 15.79217529 33.92950439 C13.22837559 31.3452081 10.65887082 28.76659801 8.08984375 26.1875 C3.05430316 21.13054075 -1.97431403 16.06675582 -7 11 C-4.69 7.37 -2.38 3.74 0 0 Z " fill="#98C84E" transform="translate(387,405)"/>
<path d="M0 0 C12.21694342 -0.79216492 19.5064659 0.89442487 28.75 8.9375 C34.85291464 14.69056603 40.75300041 20.66392605 46.64648438 26.63061523 C47.76042175 27.75761284 48.87951348 28.87951348 50 30 C48.02 33.96 46.04 37.92 44 42 C41 42 41 42 39.0827179 40.45021057 C38.36101913 39.72486618 37.63932037 38.99952179 36.89575195 38.25219727 C36.07512772 37.43457413 35.25450348 36.61695099 34.40901184 35.77455139 C33.52767075 34.88086349 32.64632965 33.9871756 31.73828125 33.06640625 C30.83248825 32.15874008 29.92669525 31.25107391 28.99345398 30.31590271 C27.07655686 28.39440163 25.16467833 26.46809165 23.2565918 24.5378418 C20.80518412 22.05811181 18.34514428 19.58717898 15.88177204 17.11933994 C13.53909392 14.77151757 11.20114227 12.41902599 8.86328125 10.06640625 C7.97586746 9.17474258 7.08845367 8.28307892 6.17414856 7.36439514 C5.3629808 6.54361984 4.55181305 5.72284454 3.71606445 4.87719727 C2.99675247 4.15105728 2.27744049 3.4249173 1.53633118 2.67677307 C0 1 0 1 0 0 Z " fill="#95C44D" transform="translate(428,159)"/>
<path d="M0 0 C1.85625 0.0309375 1.85625 0.0309375 3.75 0.0625 C3.09 0.578125 2.43 1.09375 1.75 1.625 C-4.66874733 6.84023221 -10.70188067 12.36735818 -16.5234375 18.23828125 C-17.17325592 18.88951462 -17.82307434 19.54074799 -18.49258423 20.2117157 C-20.5391146 22.26377689 -22.58211634 24.31930905 -24.625 26.375 C-26.01669295 27.7717177 -27.40861813 29.16820406 -28.80078125 30.56445312 C-31.84413176 33.6175696 -34.88527134 36.67286796 -37.92440796 39.73017883 C-39.03124784 40.84263738 -40.14034723 41.95284723 -41.25 43.0625 C-41.72050781 42.58039063 -42.19101562 42.09828125 -42.67578125 41.6015625 C-43.29839844 40.96992188 -43.92101562 40.33828125 -44.5625 39.6875 C-45.17738281 39.06101563 -45.79226563 38.43453125 -46.42578125 37.7890625 C-48.33812528 35.88163393 -48.33812528 35.88163393 -51.25 34.0625 C-45.38887178 20.91864694 -28.46669636 8.09505035 -15.30078125 2.8984375 C-12.95542082 2.16572636 -10.65286931 1.56647259 -8.25 1.0625 C-7.58742188 0.87816406 -6.92484375 0.69382812 -6.2421875 0.50390625 C-4.09775941 0.02876826 -2.19301859 -0.03655031 0 0 Z " fill="#96C54E" transform="translate(400.25,92.9375)"/>
<path d="M0 0 C3.91943343 3.25229583 7.55732182 6.5544657 11.0625 10.25 C20.27376019 19.53945425 31.37704135 26.16921344 43 32 C34.63152705 35.14853438 21.58697033 28.31237736 13.80322266 24.85839844 C6.66351217 21.53604611 -1.56829819 17.64755271 -6 11 C-4.02 7.37 -2.04 3.74 0 0 Z " fill="#955C32" transform="translate(198,401)"/>
<path d="M0 0 C-0.48766846 0.28609131 -0.97533691 0.57218262 -1.4777832 0.86694336 C-16.45326506 9.70126071 -28.91222524 19.53250457 -41 32 C-46.59206587 25.05052395 -46.59206587 25.05052395 -48 22 C-45.57661786 14.55034379 -34.79082575 10.77553582 -28.375 7.375 C-22.99507624 4.74455055 -17.60779978 2.72511966 -11.875 1 C-10.790979 0.67008057 -10.790979 0.67008057 -9.68505859 0.33349609 C-6.03662066 -0.6959923 -3.6108866 -1.11318277 0 0 Z " fill="#955B32" transform="translate(240,141)"/>
<path d="M0 0 C5.28 0 10.56 0 16 0 C16.3689441 10.33043478 16.3689441 10.33043478 14.734375 13.296875 C12.24078656 15.74553392 10.3209023 15.89590422 6.9375 16.17578125 C5 16 5 16 2.5625 14.1875 C-0.78905202 9.49532717 -0.0729285 5.68842291 0 0 Z " fill="#AF6A3A" transform="translate(248,481)"/>
<path d="M0 0 C2.4375 1.625 2.4375 1.625 4 4 C4.48288863 7.31123632 4.29618989 9.296549 3 12.375 C0.4067044 14.48205268 -1.77361313 14.56430314 -5.05859375 14.3828125 C-7 14 -7 14 -9.5 12.375 C-11.45562482 9.27859404 -11.60024477 7.60146865 -11 4 C-8.05899778 -0.47032338 -5.13105401 -0.73300772 0 0 Z " fill="#040501" transform="translate(244,47)"/>
<path d="M0 0 C2.4375 1.625 2.4375 1.625 4 4 C4.48288863 7.31123632 4.29618989 9.296549 3 12.375 C0.40762442 14.48130516 -1.77045207 14.56674997 -5.0546875 14.37890625 C-7 14 -7 14 -9.5625 12.4375 C-11 10 -11 10 -10.9375 6.4375 C-10 3 -10 3 -8.875 1.0625 C-5.81547541 -0.6712306 -3.43182475 -0.42145216 0 0 Z " fill="#030501" transform="translate(275,47)"/>
</svg>
